<svg width="188" height="159" viewBox="0 0 188 159" fill="none" xmlns="http://www.w3.org/2000/svg">
<path d="M29.2955 110.841C29.1136 109.008 28.3333 107.583 26.9545 106.568C25.5758 105.553 23.7045 105.045 21.3409 105.045C19.7348 105.045 18.3788 105.273 17.2727 105.727C16.1667 106.167 15.3182 106.78 14.7273 107.568C14.1515 108.356 13.8636 109.25 13.8636 110.25C13.8333 111.083 14.0076 111.811 14.3864 112.432C14.7803 113.053 15.3182 113.591 16 114.045C16.6818 114.485 17.4697 114.871 18.3636 115.205C19.2576 115.523 20.2121 115.795 21.2273 116.023L25.4091 117.023C27.4394 117.477 29.303 118.083 31 118.841C32.697 119.598 34.1667 120.53 35.4091 121.636C36.6515 122.742 37.6136 124.045 38.2955 125.545C38.9924 127.045 39.3485 128.765 39.3636 130.705C39.3485 133.553 38.6212 136.023 37.1818 138.114C35.7576 140.189 33.697 141.803 31 142.955C28.3182 144.091 25.0833 144.659 21.2955 144.659C17.5379 144.659 14.2652 144.083 11.4773 142.932C8.70455 141.78 6.53788 140.076 4.97727 137.818C3.43182 135.545 2.62121 132.735 2.54545 129.386H12.0682C12.1742 130.947 12.6212 132.25 13.4091 133.295C14.2121 134.326 15.2803 135.106 16.6136 135.636C17.9621 136.152 19.4848 136.409 21.1818 136.409C22.8485 136.409 24.2955 136.167 25.5227 135.682C26.7652 135.197 27.7273 134.523 28.4091 133.659C29.0909 132.795 29.4318 131.803 29.4318 130.682C29.4318 129.636 29.1212 128.758 28.5 128.045C27.8939 127.333 27 126.727 25.8182 126.227C24.6515 125.727 23.2197 125.273 21.5227 124.864L16.4545 123.591C12.5303 122.636 9.43182 121.144 7.15909 119.114C4.88636 117.083 3.75758 114.348 3.77273 110.909C3.75758 108.091 4.50758 105.629 6.02273 103.523C7.55303 101.417 9.65152 99.7727 12.3182 98.5909C14.9848 97.4091 18.0152 96.8182 21.4091 96.8182C24.8636 96.8182 27.8788 97.4091 30.4545 98.5909C33.0455 99.7727 35.0606 101.417 36.5 103.523C37.9394 105.629 38.6818 108.068 38.7273 110.841H29.2955ZM45.983 144V97.4545H55.8239V116.659H75.8011V97.4545H85.6193V144H75.8011V124.773H55.8239V144H45.983ZM136.506 120.727C136.506 125.803 135.544 130.121 133.619 133.682C131.71 137.242 129.104 139.962 125.801 141.841C122.513 143.705 118.816 144.636 114.71 144.636C110.574 144.636 106.862 143.697 103.574 141.818C100.286 139.939 97.6875 137.22 95.7784 133.659C93.8693 130.098 92.9148 125.788 92.9148 120.727C92.9148 115.652 93.8693 111.333 95.7784 107.773C97.6875 104.212 100.286 101.5 103.574 99.6364C106.862 97.7576 110.574 96.8182 114.71 96.8182C118.816 96.8182 122.513 97.7576 125.801 99.6364C129.104 101.5 131.71 104.212 133.619 107.773C135.544 111.333 136.506 115.652 136.506 120.727ZM126.528 120.727C126.528 117.439 126.036 114.667 125.051 112.409C124.081 110.152 122.71 108.439 120.938 107.273C119.165 106.106 117.089 105.523 114.71 105.523C112.331 105.523 110.256 106.106 108.483 107.273C106.71 108.439 105.331 110.152 104.347 112.409C103.377 114.667 102.892 117.439 102.892 120.727C102.892 124.015 103.377 126.788 104.347 129.045C105.331 131.303 106.71 133.015 108.483 134.182C110.256 135.348 112.331 135.932 114.71 135.932C117.089 135.932 119.165 135.348 120.938 134.182C122.71 133.015 124.081 131.303 125.051 129.045C126.036 126.788 126.528 124.015 126.528 120.727ZM143.795 144V97.4545H162.159C165.689 97.4545 168.697 98.1288 171.182 99.4773C173.667 100.811 175.561 102.667 176.864 105.045C178.182 107.409 178.841 110.136 178.841 113.227C178.841 116.318 178.174 119.045 176.841 121.409C175.508 123.773 173.576 125.614 171.045 126.932C168.53 128.25 165.485 128.909 161.909 128.909H150.205V121.023H160.318C162.212 121.023 163.773 120.697 165 120.045C166.242 119.379 167.167 118.462 167.773 117.295C168.394 116.114 168.705 114.758 168.705 113.227C168.705 111.682 168.394 110.333 167.773 109.182C167.167 108.015 166.242 107.114 165 106.477C163.758 105.826 162.182 105.5 160.273 105.5H153.636V144H143.795Z" fill="white"/>
<rect x="10" width="162" height="77" fill="white"/>
<path d="M28.8864 15.4545V62H19.0455V15.4545H28.8864ZM45.0057 62H34.4602L50.5284 15.4545H63.2102L79.2557 62H68.7102L57.0511 26.0909H56.6875L45.0057 62ZM44.3466 43.7045H69.2557V51.3864H44.3466V43.7045ZM109.045 28.8409C108.864 27.0076 108.083 25.5833 106.705 24.5682C105.326 23.553 103.455 23.0455 101.091 23.0455C99.4848 23.0455 98.1288 23.2727 97.0227 23.7273C95.9167 24.1667 95.0682 24.7803 94.4773 25.5682C93.9015 26.3561 93.6136 27.25 93.6136 28.25C93.5833 29.0833 93.7576 29.8106 94.1364 30.4318C94.5303 31.053 95.0682 31.5909 95.75 32.0455C96.4318 32.4848 97.2197 32.8712 98.1136 33.2045C99.0076 33.5227 99.9621 33.7955 100.977 34.0227L105.159 35.0227C107.189 35.4773 109.053 36.0833 110.75 36.8409C112.447 37.5985 113.917 38.5303 115.159 39.6364C116.402 40.7424 117.364 42.0455 118.045 43.5455C118.742 45.0455 119.098 46.7652 119.114 48.7045C119.098 51.553 118.371 54.0227 116.932 56.1136C115.508 58.1894 113.447 59.803 110.75 60.9545C108.068 62.0909 104.833 62.6591 101.045 62.6591C97.2879 62.6591 94.0152 62.0833 91.2273 60.9318C88.4545 59.7803 86.2879 58.0758 84.7273 55.8182C83.1818 53.5455 82.3712 50.7348 82.2955 47.3864H91.8182C91.9242 48.947 92.3712 50.25 93.1591 51.2955C93.9621 52.3258 95.0303 53.1061 96.3636 53.6364C97.7121 54.1515 99.2348 54.4091 100.932 54.4091C102.598 54.4091 104.045 54.1667 105.273 53.6818C106.515 53.197 107.477 52.5227 108.159 51.6591C108.841 50.7955 109.182 49.803 109.182 48.6818C109.182 47.6364 108.871 46.7576 108.25 46.0455C107.644 45.3333 106.75 44.7273 105.568 44.2273C104.402 43.7273 102.97 43.2727 101.273 42.8636L96.2045 41.5909C92.2803 40.6364 89.1818 39.1439 86.9091 37.1136C84.6364 35.0833 83.5076 32.3485 83.5227 28.9091C83.5076 26.0909 84.2576 23.6288 85.7727 21.5227C87.303 19.4167 89.4015 17.7727 92.0682 16.5909C94.7348 15.4091 97.7652 14.8182 101.159 14.8182C104.614 14.8182 107.629 15.4091 110.205 16.5909C112.795 17.7727 114.811 19.4167 116.25 21.5227C117.689 23.6288 118.432 26.0682 118.477 28.8409H109.045ZM132.693 62H122.148L138.216 15.4545H150.898L166.943 62H156.398L144.739 26.0909H144.375L132.693 62ZM132.034 43.7045H156.943V51.3864H132.034V43.7045ZM178.023 62.5909C176.523 62.5909 175.235 62.0606 174.159 61C173.098 59.9242 172.568 58.6364 172.568 57.1364C172.568 55.6515 173.098 54.3788 174.159 53.3182C175.235 52.2576 176.523 51.7273 178.023 51.7273C179.477 51.7273 180.75 52.2576 181.841 53.3182C182.932 54.3788 183.477 55.6515 183.477 57.1364C183.477 58.1364 183.22 59.053 182.705 59.8864C182.205 60.7045 181.545 61.3636 180.727 61.8636C179.909 62.3485 179.008 62.5909 178.023 62.5909Z" fill="black"/>
<rect x="10" y="81" width="162" height="2" rx="1" fill="white"/>
<rect x="10" y="157" width="162" height="2" rx="1" fill="white"/>
</svg>
