<svg width="351" height="77" viewBox="0 0 351 77" fill="none" xmlns="http://www.w3.org/2000/svg">
<path d="M198.295 28.8409C198.114 27.0076 197.333 25.5833 195.955 24.5682C194.576 23.553 192.705 23.0455 190.341 23.0455C188.735 23.0455 187.379 23.2727 186.273 23.7273C185.167 24.1667 184.318 24.7803 183.727 25.5682C183.152 26.3561 182.864 27.25 182.864 28.25C182.833 29.0833 183.008 29.8106 183.386 30.4318C183.78 31.053 184.318 31.5909 185 32.0455C185.682 32.4848 186.47 32.8712 187.364 33.2045C188.258 33.5227 189.212 33.7955 190.227 34.0227L194.409 35.0227C196.439 35.4773 198.303 36.0833 200 36.8409C201.697 37.5985 203.167 38.5303 204.409 39.6364C205.652 40.7424 206.614 42.0455 207.295 43.5455C207.992 45.0455 208.348 46.7652 208.364 48.7045C208.348 51.553 207.621 54.0227 206.182 56.1136C204.758 58.1894 202.697 59.803 200 60.9545C197.318 62.0909 194.083 62.6591 190.295 62.6591C186.538 62.6591 183.265 62.0833 180.477 60.9318C177.705 59.7803 175.538 58.0758 173.977 55.8182C172.432 53.5455 171.621 50.7348 171.545 47.3864H181.068C181.174 48.947 181.621 50.25 182.409 51.2955C183.212 52.3258 184.28 53.1061 185.614 53.6364C186.962 54.1515 188.485 54.4091 190.182 54.4091C191.848 54.4091 193.295 54.1667 194.523 53.6818C195.765 53.197 196.727 52.5227 197.409 51.6591C198.091 50.7955 198.432 49.803 198.432 48.6818C198.432 47.6364 198.121 46.7576 197.5 46.0455C196.894 45.3333 196 44.7273 194.818 44.2273C193.652 43.7273 192.22 43.2727 190.523 42.8636L185.455 41.5909C181.53 40.6364 178.432 39.1439 176.159 37.1136C173.886 35.0833 172.758 32.3485 172.773 28.9091C172.758 26.0909 173.508 23.6288 175.023 21.5227C176.553 19.4167 178.652 17.7727 181.318 16.5909C183.985 15.4091 187.015 14.8182 190.409 14.8182C193.864 14.8182 196.879 15.4091 199.455 16.5909C202.045 17.7727 204.061 19.4167 205.5 21.5227C206.939 23.6288 207.682 26.0682 207.727 28.8409H198.295ZM214.983 62V15.4545H224.824V34.6591H244.801V15.4545H254.619V62H244.801V42.7727H224.824V62H214.983ZM305.506 38.7273C305.506 43.803 304.544 48.1212 302.619 51.6818C300.71 55.2424 298.104 57.9621 294.801 59.8409C291.513 61.7045 287.816 62.6364 283.71 62.6364C279.574 62.6364 275.862 61.697 272.574 59.8182C269.286 57.9394 266.688 55.2197 264.778 51.6591C262.869 48.0985 261.915 43.7879 261.915 38.7273C261.915 33.6515 262.869 29.3333 264.778 25.7727C266.688 22.2121 269.286 19.5 272.574 17.6364C275.862 15.7576 279.574 14.8182 283.71 14.8182C287.816 14.8182 291.513 15.7576 294.801 17.6364C298.104 19.5 300.71 22.2121 302.619 25.7727C304.544 29.3333 305.506 33.6515 305.506 38.7273ZM295.528 38.7273C295.528 35.4394 295.036 32.6667 294.051 30.4091C293.081 28.1515 291.71 26.4394 289.938 25.2727C288.165 24.1061 286.089 23.5227 283.71 23.5227C281.331 23.5227 279.256 24.1061 277.483 25.2727C275.71 26.4394 274.331 28.1515 273.347 30.4091C272.377 32.6667 271.892 35.4394 271.892 38.7273C271.892 42.0152 272.377 44.7879 273.347 47.0455C274.331 49.303 275.71 51.0152 277.483 52.1818C279.256 53.3485 281.331 53.9318 283.71 53.9318C286.089 53.9318 288.165 53.3485 289.938 52.1818C291.71 51.0152 293.081 49.303 294.051 47.0455C295.036 44.7879 295.528 42.0152 295.528 38.7273ZM312.795 62V15.4545H331.159C334.689 15.4545 337.697 16.1288 340.182 17.4773C342.667 18.8106 344.561 20.6667 345.864 23.0455C347.182 25.4091 347.841 28.1364 347.841 31.2273C347.841 34.3182 347.174 37.0455 345.841 39.4091C344.508 41.7727 342.576 43.6136 340.045 44.9318C337.53 46.25 334.485 46.9091 330.909 46.9091H319.205V39.0227H329.318C331.212 39.0227 332.773 38.697 334 38.0455C335.242 37.3788 336.167 36.4621 336.773 35.2955C337.394 34.1136 337.705 32.7576 337.705 31.2273C337.705 29.6818 337.394 28.3333 336.773 27.1818C336.167 26.0151 335.242 25.1136 334 24.4773C332.758 23.8258 331.182 23.5 329.273 23.5H322.636V62H312.795Z" fill="white"/>
<rect width="162" height="77" fill="white"/>
<path d="M18.8864 15.4545V62H9.04545V15.4545H18.8864ZM35.0057 62H24.4602L40.5284 15.4545H53.2102L69.2557 62H58.7102L47.0511 26.0909H46.6875L35.0057 62ZM34.3466 43.7045H59.2557V51.3864H34.3466V43.7045ZM99.0455 28.8409C98.8636 27.0076 98.0833 25.5833 96.7045 24.5682C95.3258 23.553 93.4545 23.0455 91.0909 23.0455C89.4848 23.0455 88.1288 23.2727 87.0227 23.7273C85.9167 24.1667 85.0682 24.7803 84.4773 25.5682C83.9015 26.3561 83.6136 27.25 83.6136 28.25C83.5833 29.0833 83.7576 29.8106 84.1364 30.4318C84.5303 31.053 85.0682 31.5909 85.75 32.0455C86.4318 32.4848 87.2197 32.8712 88.1136 33.2045C89.0076 33.5227 89.9621 33.7955 90.9773 34.0227L95.1591 35.0227C97.1894 35.4773 99.053 36.0833 100.75 36.8409C102.447 37.5985 103.917 38.5303 105.159 39.6364C106.402 40.7424 107.364 42.0455 108.045 43.5455C108.742 45.0455 109.098 46.7652 109.114 48.7045C109.098 51.553 108.371 54.0227 106.932 56.1136C105.508 58.1894 103.447 59.803 100.75 60.9545C98.0682 62.0909 94.8333 62.6591 91.0455 62.6591C87.2879 62.6591 84.0152 62.0833 81.2273 60.9318C78.4545 59.7803 76.2879 58.0758 74.7273 55.8182C73.1818 53.5455 72.3712 50.7348 72.2955 47.3864H81.8182C81.9242 48.947 82.3712 50.25 83.1591 51.2955C83.9621 52.3258 85.0303 53.1061 86.3636 53.6364C87.7121 54.1515 89.2348 54.4091 90.9318 54.4091C92.5985 54.4091 94.0455 54.1667 95.2727 53.6818C96.5152 53.197 97.4773 52.5227 98.1591 51.6591C98.8409 50.7955 99.1818 49.803 99.1818 48.6818C99.1818 47.6364 98.8712 46.7576 98.25 46.0455C97.6439 45.3333 96.75 44.7273 95.5682 44.2273C94.4015 43.7273 92.9697 43.2727 91.2727 42.8636L86.2045 41.5909C82.2803 40.6364 79.1818 39.1439 76.9091 37.1136C74.6364 35.0833 73.5076 32.3485 73.5227 28.9091C73.5076 26.0909 74.2576 23.6288 75.7727 21.5227C77.303 19.4167 79.4015 17.7727 82.0682 16.5909C84.7348 15.4091 87.7652 14.8182 91.1591 14.8182C94.6136 14.8182 97.6288 15.4091 100.205 16.5909C102.795 17.7727 104.811 19.4167 106.25 21.5227C107.689 23.6288 108.432 26.0682 108.477 28.8409H99.0455ZM122.693 62H112.148L128.216 15.4545H140.898L156.943 62H146.398L134.739 26.0909H134.375L122.693 62ZM122.034 43.7045H146.943V51.3864H122.034V43.7045ZM168.023 62.5909C166.523 62.5909 165.235 62.0606 164.159 61C163.098 59.9242 162.568 58.6364 162.568 57.1364C162.568 55.6515 163.098 54.3788 164.159 53.3182C165.235 52.2576 166.523 51.7273 168.023 51.7273C169.477 51.7273 170.75 52.2576 171.841 53.3182C172.932 54.3788 173.477 55.6515 173.477 57.1364C173.477 58.1364 173.22 59.053 172.705 59.8864C172.205 60.7045 171.545 61.3636 170.727 61.8636C169.909 62.3485 169.008 62.5909 168.023 62.5909Z" fill="black"/>
<rect x="169" width="182" height="2" rx="1" fill="white"/>
<rect x="169" y="75" width="182" height="2" rx="1" fill="white"/>
</svg>
